<svg width="72" height="72" viewBox="0 0 72 72" fill="none" xmlns="http://www.w3.org/2000/svg">
<g clip-path="url(#clip0_34717_2781)">
<path d="M60.4915 13.3531C55.8581 11.2267 50.969 9.70911 45.946 8.83806C45.9005 8.8304 45.8538 8.83702 45.8122 8.85701C45.7706 8.877 45.7362 8.90939 45.7138 8.94971C45.0841 10.0662 44.3874 11.5265 43.9006 12.6698C38.4862 11.8481 32.9788 11.8481 27.5643 12.6698C27.0213 11.3962 26.4071 10.1542 25.7244 8.94971C25.7015 8.90983 25.667 8.87782 25.6256 8.85789C25.5841 8.83796 25.5376 8.83105 25.4922 8.83806C20.468 9.70445 15.5778 11.2229 10.9467 13.3531C10.9071 13.3682 10.8739 13.3966 10.8529 13.4335C1.59062 27.2733 -0.950484 40.7738 0.295504 54.1045C0.29997 54.167 0.340163 54.2296 0.389288 54.2698C5.78287 58.265 11.8157 61.3154 18.2306 63.2909C18.2759 63.3052 18.3246 63.3047 18.3695 63.2894C18.4145 63.2741 18.4534 63.2449 18.4807 63.206C19.8562 61.3304 21.0798 59.352 22.1338 57.2709C22.1558 57.228 22.1633 57.1792 22.1552 57.1317C22.1472 57.0842 22.124 57.0406 22.0891 57.0074C22.0661 56.9856 22.0387 56.9688 22.0088 56.9582C20.0847 56.2188 18.2212 55.3303 16.4353 54.301C16.3854 54.2728 16.3483 54.2264 16.3317 54.1715C16.3151 54.1166 16.3202 54.0575 16.346 54.0063C16.3612 53.973 16.3842 53.9439 16.413 53.9214C16.7881 53.6401 17.1632 53.3453 17.5205 53.0506C17.5521 53.0252 17.5899 53.0089 17.6301 53.0034C17.6702 52.9979 17.711 53.0034 17.7483 53.0193C29.4445 58.3605 42.1053 58.3605 53.6587 53.0193C53.6972 53.0026 53.7396 52.9967 53.7813 53.0022C53.823 53.0077 53.8624 53.0244 53.8953 53.0506C54.2526 53.3453 54.6278 53.6401 55.0029 53.9214C55.0333 53.9436 55.0577 53.973 55.074 54.007C55.0902 54.041 55.0978 54.0784 55.096 54.116C55.0942 54.1536 55.0832 54.1902 55.0638 54.2225C55.0444 54.2548 55.0174 54.2818 54.985 54.301C53.2032 55.3398 51.3373 56.2271 49.4071 56.9538C49.3763 56.9649 49.3484 56.9827 49.3252 57.0058C49.3021 57.029 49.2843 57.057 49.2731 57.0877C49.2628 57.1176 49.2587 57.1492 49.261 57.1807C49.2633 57.2122 49.272 57.2428 49.2865 57.2709C50.3583 59.3475 51.5865 61.3304 52.9352 63.206C52.9624 63.2449 53.0014 63.2741 53.0463 63.2894C53.0913 63.3047 53.14 63.3052 53.1853 63.2909C59.6109 61.3216 65.6535 58.2708 71.0534 54.2698C71.0804 54.251 71.1029 54.2265 71.1191 54.1978C71.1354 54.1692 71.1449 54.1373 71.1471 54.1045C72.6388 38.6927 68.6507 25.3039 60.5808 13.438C60.5727 13.4184 60.5605 13.4007 60.5451 13.3861C60.5298 13.3714 60.5115 13.3602 60.4915 13.3531ZM23.88 45.9855C20.3564 45.9855 17.458 42.7522 17.458 38.7865C17.458 34.8163 20.3028 31.5829 23.88 31.5829C27.484 31.5829 30.3555 34.8431 30.3019 38.7865C30.3019 42.7522 27.4572 45.9855 23.88 45.9855ZM47.6207 45.9855C44.1016 45.9855 41.1988 42.7522 41.1988 38.7865C41.1988 34.8163 44.0435 31.5829 47.6207 31.5829C51.2247 31.5829 54.1008 34.8431 54.0427 38.7865C54.0427 42.7522 51.2247 45.9855 47.6207 45.9855Z" fill="#FF0000"/>
</g>
<defs>
<clipPath id="clip0_34717_2781">
<rect width="71.4545" height="71.4545" fill="white" transform="translate(0 0.370117)"/>
</clipPath>
</defs>
</svg>
