<svg width="72" height="72" viewBox="0 0 72 72" fill="none" xmlns="http://www.w3.org/2000/svg">
<path d="M70.8461 15.0676C68.3601 16.1692 65.6895 16.9135 62.8819 17.25C65.7788 15.5166 67.9461 12.7884 68.9793 9.57455C66.2577 11.1912 63.2789 12.3291 60.1726 12.9389C58.0837 10.7085 55.3168 9.23016 52.3016 8.7334C49.2864 8.23663 46.1916 8.74923 43.4976 10.1916C40.8036 11.634 38.6611 13.9254 37.4029 16.7102C36.1446 19.495 35.8409 22.6172 36.539 25.5923C31.0241 25.3154 25.6291 23.882 20.7041 21.3851C15.7791 18.8882 11.4341 15.3837 7.95121 11.0989C6.7603 13.1532 6.07553 15.5351 6.07553 18.0717C6.0742 20.3552 6.63654 22.6038 7.71267 24.6179C8.78879 26.632 10.3454 28.3493 12.2444 29.6176C10.0421 29.5475 7.88831 28.9524 5.96239 27.8818V28.0604C5.96217 31.2632 7.07003 34.3674 9.098 36.8464C11.126 39.3253 13.9491 41.0263 17.0885 41.6606C15.0454 42.2135 12.9034 42.295 10.8243 41.8988C11.71 44.6546 13.4353 47.0644 15.7587 48.791C18.0821 50.5175 20.8872 51.4742 23.7814 51.5273C18.8684 55.3841 12.8009 57.4762 6.55487 57.467C5.44846 57.4673 4.34298 57.4026 3.24414 57.2734C9.58417 61.3498 16.9644 63.5133 24.5019 63.5049C50.0171 63.5049 63.9656 42.3722 63.9656 24.0441C63.9656 23.4486 63.9507 22.8472 63.9239 22.2518C66.6371 20.2897 68.9791 17.86 70.8401 15.0766L70.8461 15.0676Z" fill="#FF0000"/>
</svg>
